<svg width="100" height="20" viewBox="0 0 100 20" fill="none" xmlns="http://www.w3.org/2000/svg">
<rect x="25" width="49" height="20" rx="10" fill="#0A65FF"/>
<path d="M31.4134 14L32.081 12.0753H34.9219L35.5859 14H36.7507L34.1335 6.72727H32.8658L30.2486 14H31.4134ZM32.4006 11.152L33.473 8.0483H33.5298L34.6023 11.152H32.4006ZM43.9996 9.09233C43.7511 7.53693 42.533 6.62784 40.9954 6.62784C39.1133 6.62784 37.7248 8.03764 37.7248 10.3636C37.7248 12.6896 39.1062 14.0994 40.9954 14.0994C42.5934 14.0994 43.7617 13.098 43.9996 11.6598L42.8917 11.6562C42.7035 12.5866 41.9222 13.098 41.0025 13.098C39.756 13.098 38.815 12.1428 38.815 10.3636C38.815 8.59872 39.7525 7.62926 41.006 7.62926C41.9329 7.62926 42.7106 8.15128 42.8917 9.09233H43.9996ZM45.454 7.67188H47.7196V14H48.8134V7.67188H51.0826V6.72727H45.454V7.67188ZM53.9237 6.72727H52.8263V14H53.9237V6.72727ZM56.6573 6.72727H55.4712L58.0884 14H59.3562L61.9734 6.72727H60.7873L58.7631 12.6506H58.6815L56.6573 6.72727ZM63.5236 14H68.1259V13.0554H64.6209V10.8288H67.8453V9.88778H64.6209V7.67188H68.0833V6.72727H63.5236V14Z" fill="white"/>
</svg>
