<svg width="28" height="33" viewBox="0 0 28 33" fill="none" xmlns="http://www.w3.org/2000/svg">
<path d="M14.0001 32.6665C15.8334 32.6665 17.3334 31.1665 17.3334 29.3332H10.6667C10.6667 31.1665 12.1667 32.6665 14.0001 32.6665ZM24.0001 22.6665V14.3332C24.0001 9.2165 21.2834 4.93317 16.5001 3.79984V2.6665C16.5001 1.28317 15.3834 0.166504 14.0001 0.166504C12.6167 0.166504 11.5001 1.28317 11.5001 2.6665V3.79984C6.73341 4.93317 4.00008 9.19984 4.00008 14.3332V22.6665L0.666748 25.9998V27.6665H27.3334V25.9998L24.0001 22.6665ZM20.6667 24.3332H7.33341V14.3332C7.33341 10.1998 9.85008 6.83317 14.0001 6.83317C18.1501 6.83317 20.6667 10.1998 20.6667 14.3332V24.3332Z" fill="#1A2E3D"/>
</svg>
