<svg width="18" height="18" viewBox="0 0 18 18" fill="none" xmlns="http://www.w3.org/2000/svg"><g id="Stockholm-icons / Home / Key"><path id="Path 59" opacity="0.3" fill-rule="evenodd" clip-rule="evenodd" d="M8.52456 8.11685L3.75009 12.7499L3.75009 14.9999L6.00009 14.9999L6.00009 13.4999L7.45643 13.4999V11.9999L9.00009 11.9999L10.6384 10.2307L8.52456 8.11685Z" fill="black"/><path id="Combined Shape" fill-rule="evenodd" clip-rule="evenodd" d="M15.1709 9.92094C13.4135 11.6783 10.5643 11.6783 8.80691 9.92094C7.04955 8.16358 7.04955 5.31434 8.80691 3.55698C10.5643 1.79962 13.4135 1.79962 15.1709 3.55698C16.9282 5.31434 16.9282 8.16358 15.1709 9.92094ZM13.6364 6.88648C13.197 7.32582 12.4847 7.32582 12.0454 6.88649C11.606 6.44715 11.606 5.73483 12.0454 5.29549C12.4847 4.85616 13.197 4.85616 13.6364 5.29549C14.0757 5.73483 14.0757 6.44715 13.6364 6.88648Z" fill="black"/></g></svg>