<svg width="326" height="327" viewBox="0 0 326 327" fill="none" xmlns="http://www.w3.org/2000/svg">
<path fill-rule="evenodd" clip-rule="evenodd" d="M130.692 248.815C176.225 261.659 198.381 212.37 237.395 216.12C258.751 218.172 301.319 228.576 301.224 152.789C300.986 103.86 256.026 91.6078 209.662 116.7C196.019 122.052 185.248 120.393 173.553 115.076C161.858 109.758 146.817 86.0198 118.47 81.1362C33.1624 66.4397 -39.8289 200.715 130.692 248.815Z" fill="#2067A1"/>
<path fill-rule="evenodd" clip-rule="evenodd" d="M238.896 125.719C239.75 125.302 241.283 126.11 240.394 127.41C238.425 130.289 246.039 136.041 243.595 130.973C243.334 130.431 241.994 126.683 243.89 128.618C245.786 130.553 248.43 139.102 246.72 142.048C245.219 144.633 241.248 145.863 235.827 146.008L235.583 146.014L235.468 146.021C232.272 146.17 229.849 144.186 228.285 140.323L228.21 140.134C226.626 136.09 227.061 132.849 229.621 130.663C229.668 130.623 229.717 130.588 229.77 130.556L229.85 130.513L238.896 125.719Z" fill="white"/>
<path fill-rule="evenodd" clip-rule="evenodd" d="M66.2541 50.0374C65.8813 49.5068 65.2773 49.2012 64.6322 49.2805C63.9716 49.3609 63.4192 49.8216 63.2182 50.4573L63.1646 50.6274C63.1239 50.7528 63.0755 50.8966 63.0187 51.0582C62.8566 51.5196 62.6601 52.0318 62.428 52.5826C61.7681 54.1486 60.9557 55.7115 59.9861 57.1656C57.894 60.3027 55.3733 62.4865 52.4184 63.3276C51.9565 63.4591 51.6883 63.9412 51.8194 64.4045C51.8859 64.6397 56.2015 66.8031 60.6071 66.2577C64.8803 65.7287 69.2481 62.4972 69.2833 62.2773L69.3371 61.8194L69.3523 61.6659C69.6584 58.3366 69.0774 54.5757 66.8423 50.9325C66.6567 50.6298 66.4606 50.3314 66.2541 50.0374Z" fill="#E7EAEE"/>
<path fill-rule="evenodd" clip-rule="evenodd" d="M75.1467 51.0059L75.124 51.182C74.8144 53.4359 73.947 56.5749 72.3781 58.9426C70.4466 61.8577 67.7207 64.0871 64.9815 65.5239C61.0299 67.5963 56.7285 67.9757 52.4932 65.2833L52.3064 65.1627C50.0808 63.7025 48.3919 62.9995 46.0745 63.5796C43.7571 64.1598 42.6315 65.8528 41.6312 67.4235L41.5853 67.49C41.425 67.7049 41.1904 67.8537 40.926 67.9061L36.5322 68.6041L38.1323 70.598C38.6139 71.2023 38.9562 71.638 39.1592 71.9051L40.9179 74.229C46.1593 81.1244 51.8 87.7082 62.7996 85.429L63.1724 85.3488C66.0866 84.6991 68.5299 86.4442 71.5951 89.0163L72.25 89.5695C73.0608 90.2577 75.5121 92.4254 76.5155 93.4689L76.8433 93.814L77.1458 94.1404C77.2089 94.2093 77.2689 94.2755 77.3259 94.3389L77.6386 94.6926L77.8306 94.4651C79.9056 91.9596 81.2051 88.1435 81.8778 84.9954C82.132 83.806 82.2779 82.6671 82.3386 81.6163L82.346 81.4795C82.3618 81.1723 82.3689 80.9041 82.37 80.6801V80.5139L82.0566 80.606C78.4287 81.6381 74.347 81.7406 70.3641 81.2797C69.4021 81.1684 79.9563 72.594 77.7899 61.4895C77.2962 58.9586 76.9828 55.5748 76.1205 53.2781C75.8485 52.5537 75.5666 51.8913 75.2873 51.2989L75.1467 51.0059Z" fill="white"/>
<path fill-rule="evenodd" clip-rule="evenodd" d="M239.356 127.09L230.326 131.493C228.162 133.34 227.794 136.088 229.222 139.736C229.723 141.016 230.977 144.064 230.977 142.867C230.977 142.493 239.356 136.999 240.964 137.537C242.45 138.033 239.78 133.553 239.031 131.493L239.356 126.977L239.604 126.528" fill="#E7EAEE"/>
<path fill-rule="evenodd" clip-rule="evenodd" d="M227.308 130.395C227.908 130.395 224.507 131.999 224.683 134.957C224.858 137.916 227.163 143.369 226.602 143.584C226.042 143.799 224.979 142.209 224.765 141.647C223.432 138.148 223.179 136.72 223.227 134.679C223.29 132.008 224.69 130.395 227.308 130.395Z" fill="#E7EAEE"/>
<ellipse cx="242.44" cy="133.325" rx="2.34725" ry="5.31886" fill="#E7EAEE"/>
<path fill-rule="evenodd" clip-rule="evenodd" d="M78.4863 189.405C78.4863 180.176 79.5085 176.164 90.4858 171.127C112.984 162.005 112.984 161.654 156.086 144.939C167.484 140.541 191.515 151.076 201.965 146.661C208.931 143.717 215.446 141.532 221.202 138.613C221.759 142.263 225.362 148.444 226.631 149.507C219.891 150.926 213.371 153.12 207.072 156.089C193.454 162.508 201.524 160.759 179.954 181.162C178.126 182.891 171.409 186.833 161.697 190.94C161.697 190.94 142.137 188.305 134.292 185.032C126.308 181.701 114.21 171.127 114.21 171.127C114.21 171.127 100.101 180.36 91.9895 184.51C88.1929 186.453 78.4863 189.405 78.4863 189.405Z" fill="white"/>
<path fill-rule="evenodd" clip-rule="evenodd" d="M78.4862 184.609C78.4862 182.443 78.258 180.931 78.4862 179.259C79.23 173.807 82.145 171.018 90.5457 167.163C113.044 158.042 112.984 156.858 156.086 140.142C167.484 135.745 191.515 146.279 201.965 141.864C208.931 138.921 215.446 136.736 221.201 133.817C221.218 133.921 220.619 138.91 220.619 138.91C220.619 138.91 206.41 146.436 197.012 148.032C187.025 149.728 173.309 141.864 159.613 145.732C138.756 151.621 90.6913 170.132 85.0054 174.771C80.5377 178.416 78.4862 184.609 78.4862 184.609Z" fill="#E7EAEE"/>
<path fill-rule="evenodd" clip-rule="evenodd" d="M66.2541 50.0374C65.8813 49.5068 65.2773 49.2012 64.6322 49.2805C63.9716 49.3609 63.4192 49.8216 63.2182 50.4573L63.1646 50.6274C63.1239 50.7528 63.0755 50.8966 63.0187 51.0582C62.8566 51.5196 62.6601 52.0318 62.428 52.5826C61.7681 54.1486 60.9557 55.7115 59.9861 57.1656C57.894 60.3027 55.3733 62.4865 52.4184 63.3276C51.9565 63.4591 51.6883 63.9412 51.8194 64.4045C51.9504 64.8678 59.1299 61.5861 61.4312 58.1352C62.4672 56.5817 63.3293 54.923 64.0295 53.2617C64.2407 52.7605 64.4245 52.2883 64.582 51.8526L64.6585 51.6378C64.7202 51.4623 64.7732 51.305 64.8182 51.166C64.8296 51.0669 64.8401 51.0337 64.8499 51.0665C69.8301 54.4841 67.8724 62.9656 68.3507 63.0068C68.8073 63.0462 69.2118 62.724 69.2833 62.2773L69.3371 61.8194L69.3523 61.6659C69.6584 58.3366 69.0774 54.5757 66.8423 50.9325C66.6567 50.6298 66.4606 50.3314 66.2541 50.0374Z" fill="#E7EAEE"/>
<path fill-rule="evenodd" clip-rule="evenodd" d="M76.6238 50.0117L76.7335 50.2082L76.8674 50.4604C76.948 50.6156 77.0386 50.7957 77.1371 50.9991C77.4788 51.7041 77.8238 52.5019 78.1541 53.3817C79.084 55.8583 79.7341 58.5311 79.9561 61.3157C80.2573 65.0945 79.7135 68.6607 78.3363 71.9051L78.2183 72.1774C77.0995 74.7118 75.4693 77.0339 73.3533 79.1173L73.1435 79.321L73.3219 79.3297C76.3691 79.4581 79.3826 79.1845 82.0316 78.3372C82.5997 78.1556 83.2191 78.2493 83.7086 78.5907C84.197 78.9316 84.5004 79.48 84.531 80.076L84.5379 80.261L84.5422 80.5055V80.5995C84.5422 80.9407 84.5323 81.3232 84.5081 81.7423C84.4412 82.9 84.2813 84.1488 84.0027 85.4524C83.2156 89.1351 81.642 92.5845 79.0701 95.4908C78.7288 95.8766 78.2485 96.1078 77.7381 96.1352L77.62 96.138C77.0749 96.1276 76.5771 95.9017 76.2233 95.5156L75.9642 95.2137L75.8372 95.069L75.5672 94.7682L75.2715 94.448C75.1687 94.3382 75.0618 94.2255 74.951 94.1103C74.0066 93.1281 72.9645 92.1543 71.8575 91.2584C68.7893 88.775 65.8299 87.3729 63.3024 87.5249C59.1679 87.7741 55.7441 87.5803 52.5677 86.6864C48.4612 85.5307 45.2367 83.2631 43.1028 79.6532L42.9832 79.4475C41.8785 77.5149 40.2468 75.2887 38.3222 72.9716C37.7274 72.2555 37.1407 71.5746 36.5815 70.9449L36.3436 70.6782C35.9626 70.2531 35.6505 69.9144 35.5197 69.7764C35.0367 69.2659 34.8688 68.5334 35.0798 67.8635L35.1108 67.773C35.3426 67.1471 35.8818 66.6833 36.5388 66.5532L40.0624 65.8547L40.1034 65.7952C41.3642 63.9976 43.1643 62.475 45.5555 61.8617C48.0497 61.222 50.6743 61.7782 53.3174 63.4604L53.5019 63.5796C57.0717 65.9216 60.6101 65.7923 63.9743 64.028C66.3773 62.7676 68.6676 60.6275 70.4031 58.0082C72.0167 55.5729 72.9758 52.9696 73.0442 50.9148C73.0728 50.0561 73.6633 49.3188 74.4937 49.1085C75.3249 48.8978 76.1941 49.267 76.6238 50.0117ZM75.1465 51.0059L75.1237 51.182C74.8142 53.4359 73.9467 56.5749 72.3779 58.9426C70.4464 61.8577 67.7205 64.0871 64.9813 65.5239C61.0296 67.5963 56.7283 67.9757 52.493 65.2833L52.3062 65.1627C50.0806 63.7025 48.3916 62.9994 46.0742 63.5796C43.7568 64.1598 42.6313 65.8528 41.6309 67.4235L41.5851 67.49C41.4247 67.7048 41.1902 67.8537 40.9258 67.9061L36.532 68.6041L38.1321 70.5979C38.6136 71.2023 38.956 71.638 39.159 71.9051L40.9177 74.229C46.1591 81.1244 51.7998 87.7082 62.7994 85.429L63.1722 85.3488C66.0864 84.6991 68.5297 86.4442 71.5949 89.0163L72.2498 89.5695C73.0606 90.2577 75.5119 92.4254 76.5152 93.4688L76.8431 93.814L77.1456 94.1404C77.2086 94.2093 77.2687 94.2755 77.3257 94.3389L77.6384 94.6926L77.8304 94.4651C79.9054 91.9596 81.2049 88.1435 81.8776 84.9954C82.1318 83.806 82.2777 82.6671 82.3383 81.6163L82.3458 81.4794C82.3616 81.1723 82.3687 80.9041 82.3698 80.6801V80.5139L82.0564 80.606C78.4285 81.6381 74.3468 81.7406 70.3639 81.2797C69.4018 81.1684 79.9561 72.594 77.7897 61.4895C77.2959 58.9586 76.9826 55.5748 76.1203 53.2781C75.8483 52.5537 75.5664 51.8913 75.2871 51.2989L75.1465 51.0059Z" fill="#E7EAEE"/>
<path fill-rule="evenodd" clip-rule="evenodd" d="M47.5959 70.6321C48.4347 70.6321 49.1172 69.9475 49.1172 69.1061C49.1172 68.2646 48.4347 67.5801 47.5959 67.5801C46.757 67.5801 46.0745 68.2646 46.0745 69.1061C46.0745 69.9474 46.757 70.6321 47.5959 70.6321Z" fill="#00160A"/>
<ellipse cx="48.9004" cy="74.774" rx="2.39067" ry="1.962" fill="#FFB61D"/>
<ellipse cx="48.9004" cy="74.774" rx="2.39067" ry="1.962" fill="#FFB61D"/>
<path fill-rule="evenodd" clip-rule="evenodd" d="M76.6246 50.0117L76.7343 50.2082L76.8682 50.4604C76.9488 50.6156 77.0394 50.7957 77.1379 50.9991C77.4796 51.7041 77.8246 52.5019 78.1549 53.3817C79.0848 55.8583 79.735 58.5311 79.9569 61.3157C80.2581 65.0945 79.7143 68.6607 78.3371 71.9051L78.2191 72.1774C77.1003 74.7118 75.4701 77.0339 73.3541 79.1173L73.1443 79.321L73.3227 79.3297C76.3699 79.4581 79.3834 79.1845 82.0324 78.3372C82.6005 78.1556 83.2199 78.2493 83.7094 78.5907C84.1978 78.9316 84.5012 79.48 84.5318 80.076L84.5387 80.261L84.543 80.5055V80.5995C84.543 80.9407 84.5331 81.3232 84.5089 81.7423C84.442 82.9 84.2821 84.1488 84.0035 85.4524C83.2164 89.1351 81.6428 92.5845 79.0709 95.4908C78.7296 95.8766 78.2493 96.1078 77.7389 96.1352L77.6208 96.138C77.0757 96.1276 76.5779 95.9017 76.2241 95.5156L75.965 95.2137L75.838 95.069L75.568 94.7682L75.2722 94.448C75.1695 94.3382 75.0626 94.2255 74.9518 94.1103C74.0074 93.1281 72.9653 92.1543 71.8583 91.2584C68.7901 88.775 65.8307 87.3729 63.3032 87.5249C59.1687 87.7741 55.7449 87.5803 52.5685 86.6864C48.462 85.5307 45.2375 83.2631 43.1036 79.6532L42.984 79.4475C41.8793 77.5149 40.2476 75.2887 38.323 72.9716C37.7282 72.2555 37.1415 71.5746 36.5823 70.9449L36.3444 70.6782C35.9634 70.2531 35.6513 69.9144 35.5205 69.7764C35.0375 69.2659 34.8696 68.5334 35.0806 67.8635L35.1116 67.773C35.3434 67.1471 35.8825 66.6833 36.5396 66.5532L40.0632 65.8547L40.1042 65.7952C41.365 63.9976 43.1651 62.475 45.5563 61.8617C47.91 61.258 50.3799 61.7193 52.8719 63.187C55.6323 62.259 58.0023 60.1411 59.9867 57.1655C60.9563 55.7115 61.7686 54.1486 62.4286 52.5826C62.6607 52.0317 62.8572 51.5196 63.0193 51.0581C63.0761 50.8965 63.1245 50.7528 63.1651 50.6273L63.2188 50.4573C63.4197 49.8216 63.9722 49.3608 64.6328 49.2804C65.2778 49.2012 65.8819 49.5067 66.2546 50.0373C66.4612 50.3313 66.6572 50.6298 66.8429 50.9324C68.5779 53.7604 69.3161 56.6593 69.4165 59.3723C69.7619 58.9346 70.0918 58.4792 70.4039 58.0082C72.0175 55.5729 72.9766 52.9696 73.045 50.9148C73.0736 50.0561 73.6641 49.3188 74.4945 49.1085C75.3257 48.8978 76.1949 49.267 76.6246 50.0117ZM63.9751 64.028C60.7073 65.7418 57.2751 65.9128 53.8094 63.7749C56.1429 62.6926 59.8868 60.452 61.4318 58.1352C62.4678 56.5817 63.3299 54.9229 64.03 53.2616C64.2412 52.7604 64.4251 52.2883 64.5826 51.8526L64.6591 51.6378C64.7208 51.4623 64.7738 51.3049 64.8188 51.166C64.8301 51.0668 64.8407 51.0337 64.8505 51.0665C68.1609 53.3382 68.4058 57.8474 68.3384 60.6279C67.0077 62.0521 65.5145 63.2206 63.9751 64.028ZM64.9821 65.5239C66.3082 64.8283 67.6311 63.947 68.8623 62.8921C68.957 62.8368 69.0407 62.764 69.1087 62.6776C70.3255 61.6009 71.4449 60.3519 72.3787 58.9426C73.9475 56.5749 74.815 53.4359 75.1245 51.182L75.1473 51.0059L75.2879 51.2989C75.5672 51.8913 75.8491 52.5537 76.1211 53.2781C76.7212 54.8764 77.0554 57.0013 77.3696 58.9987L77.3697 58.9991C77.5069 59.8717 77.6404 60.72 77.7905 61.4895C79.4509 70.0006 73.6386 77.0254 71.2663 79.8925C70.5435 80.7661 70.14 81.2537 70.3647 81.2797C74.3475 81.7406 78.4293 81.6381 82.0572 80.606L82.3706 80.5139V80.6801C82.3695 80.9041 82.3624 81.1723 82.3466 81.4794L82.3391 81.6163C82.2785 82.6671 82.1326 83.806 81.8784 84.9954C81.2057 88.1435 79.9062 91.9596 77.8312 94.4651L77.6392 94.6926L77.3265 94.3389C77.2695 94.2755 77.2094 94.2093 77.1464 94.1404L76.8439 93.814L76.516 93.4688C75.5127 92.4254 73.0614 90.2577 72.2506 89.5695L71.5957 89.0163C68.5305 86.4442 66.0872 84.6991 63.173 85.3488L62.8002 85.429C51.8005 87.7082 46.1599 81.1244 40.9185 74.229L39.1598 71.9051C38.9568 71.638 38.6144 71.2023 38.1329 70.5979L36.5328 68.6041L40.9266 67.9061C41.191 67.8537 41.4255 67.7048 41.5859 67.49L41.6317 67.4235C42.6321 65.8528 43.7576 64.1598 46.075 63.5796C48.3924 62.9994 50.0814 63.7025 52.307 65.1627L52.4938 65.2833C56.7291 67.9757 61.0304 67.5963 64.9821 65.5239ZM238.897 125.719C239.751 125.302 241.284 126.11 240.395 127.41C239.049 129.379 240.544 133.95 241.455 136.734C241.876 138.022 242.173 138.927 242.004 139.016C241.473 139.295 240.816 139.088 240.538 138.555C239.033 135.665 238.168 133.371 237.953 131.627C237.846 130.76 237.822 129.92 237.882 129.11L237.89 129.017L230.931 132.41L230.843 132.491C229.273 133.969 228.581 135.685 229.731 138.725L229.799 138.901C231.047 142.089 233.159 144.375 235.357 144.28L235.529 144.271C240.413 144.173 243.332 142.698 244.374 140.903C245.685 138.646 246.04 136.041 243.596 130.973C243.335 130.431 241.994 126.683 243.891 128.618C245.787 130.553 248.431 139.102 246.721 142.048C245.293 144.507 241.63 145.74 236.61 145.979C236.64 146.107 236.646 146.243 236.626 146.381C236.15 149.618 234.678 151.654 232.214 152.243C230.331 152.694 228.307 152.097 226.453 150.659C219.938 152.062 213.633 154.201 207.535 157.075L206.631 157.504C203.52 158.995 201.736 159.994 200.433 160.966C199.669 161.535 199.038 162.119 198.36 162.87L198.25 162.995C197.921 163.378 197.203 164.258 196.386 165.258C195.299 166.591 194.036 168.137 193.283 169.012L192.92 169.431C189.859 172.949 186.002 176.94 180.7 181.955L180.552 182.091C178.564 183.873 173.282 186.885 166.695 189.923C184.873 189.275 197.981 182.315 206.144 169.032C206.504 168.447 207.306 168.338 207.808 168.804C221.845 181.844 238.109 187.879 256.663 186.936C275.266 185.991 288.918 181.141 297.66 172.434C298.086 172.01 298.774 172.012 299.197 172.439C299.62 172.867 299.618 173.557 299.192 173.981C290.021 183.115 270.55 189.97 251.456 190.94C232.886 191.883 221.806 184.208 207.639 171.593L207.293 171.283L207.169 171.474C198.196 185.114 178.703 195.062 159.249 195.203L158.64 195.205C138.742 195.205 127.266 185.54 113.842 172.332L113.737 172.228L113.689 172.269C113.304 172.594 112.922 172.916 112.543 173.236L112.517 173.259C99.9377 183.877 90.5519 191.8 76.4333 193.824L75.9829 193.887C60.0638 197.117 35.9207 188.512 32.2106 184.294C28.8111 180.429 32.7763 182.831 33.8648 183.491C33.9642 183.551 34.0397 183.597 34.0833 183.622C44.6196 189.673 56.7676 191.977 71.3426 189.983C73.3541 189.707 75.3528 189.343 77.3388 188.89L77.3158 188.675C76.6795 182.612 76.6757 179.962 77.5927 176.921C78.84 172.784 81.8681 169.64 87.3154 167.141L88.8153 166.476C95.544 163.501 100.888 161.268 106.431 159.098L106.836 158.94C107.458 158.697 108.088 158.453 108.731 158.206L109.361 157.965C109.588 157.884 112.557 156.704 117.069 154.909L117.071 154.908C127.482 150.768 146.111 143.36 158.264 138.648C160.892 137.633 164.076 137.296 167.98 137.498L168.316 137.517C171.241 137.69 174.117 138.088 178.833 138.906L182.977 139.634C187.604 140.438 189.846 140.754 192.463 140.941C193.286 141 194.068 141.073 194.811 141.143C197.563 141.399 199.779 141.606 201.544 140.86C203.113 140.197 204.651 139.557 206.158 138.93L206.158 138.93L206.159 138.93L206.159 138.93L206.159 138.929L206.159 138.929L206.16 138.929L206.161 138.929L206.161 138.929C211.093 136.877 215.693 134.963 219.963 132.834C220.256 130.929 221.003 129.523 222.176 128.597C223.984 127.169 226.544 127.145 228.764 128.011C229.323 128.229 229.601 128.861 229.383 129.422C229.313 129.603 228.86 129.52 228.221 129.401C226.883 129.154 224.725 128.755 223.521 130.31C222.181 132.04 221.736 134.691 222.922 139.909C223.782 143.692 229.356 150.123 231.71 150.123C234.335 150.123 234.949 147.567 235.297 146.117L235.319 146.026C232.197 146.107 229.825 144.126 228.286 140.323L228.211 140.134C226.627 136.09 227.061 132.849 229.622 130.663C229.668 130.623 229.718 130.588 229.771 130.556L229.851 130.513L238.897 125.719ZM224.448 148.689C224.338 148.555 224.229 148.418 224.122 148.278C224.106 148.262 224.09 148.245 224.075 148.228C224.051 148.201 224.028 148.175 224.008 148.149L223.921 148.044L223.864 147.975L223.703 147.782C222.861 146.767 221.885 145.591 221.121 143.896L221.011 143.649C219.785 140.894 219.639 137.801 219.714 135.25L219.725 134.953L219.66 134.986C214.596 137.5 209.087 140.022 203.134 142.553L202.387 142.869C199.838 143.946 196.654 144.707 192.621 144.445L192.309 144.424C189.553 144.227 187.234 143.897 182.373 143.05L178.744 142.412C168.514 140.635 163.394 140.358 159.176 141.94C159.176 141.94 96.2651 165.678 88.2079 169.129C83.3077 171.377 81.6452 173.493 79.6187 176.921C78.5705 178.694 78.6765 183.585 78.7501 186.983C78.7625 187.553 78.7739 188.081 78.7788 188.545C90.6742 185.56 102.109 179.357 113.089 169.92C113.522 169.548 114.168 169.575 114.569 169.982C115.457 170.882 116.361 171.753 117.279 172.593L162.581 153.608C162.706 153.556 162.834 153.528 162.961 153.524C163.302 153.362 163.67 153.229 164.065 153.124C168.015 152.07 171.17 153.784 173.35 158.003L177.298 155.113C177.881 154.687 178.708 154.938 178.958 155.616C182.561 165.384 181.512 172.078 175.578 175.307C169.594 178.564 164.39 175.879 160.333 167.738C160.127 167.325 160.208 166.848 160.493 166.526C159.526 162.585 159.346 159.445 160.004 157.171L120.313 175.214C126.248 180.047 132.765 183.692 139.869 186.151C140.031 185.995 140.207 185.861 140.38 185.766C146.364 182.478 161.105 178.638 164.747 177.689L164.748 177.689C165.063 177.607 165.295 177.547 165.431 177.51C167.139 177.051 165.389 178.652 164.873 178.891L164.807 178.919L143.29 187.23C149.691 189.059 156.545 189.973 163.856 189.973C164.271 189.973 164.684 189.97 165.095 189.963L165.576 189.65C170.178 186.65 177.873 181.632 179.209 180.369L179.833 179.777C184.263 175.465 187.56 171.329 190.438 167.718L190.438 167.718C193.595 163.756 196.249 160.428 199.34 158.195C201.744 156.458 202.615 156.062 204.663 155.129L204.663 155.129C205.211 154.88 205.842 154.592 206.61 154.23C212.041 151.67 218.208 150.188 223.997 148.797L223.997 148.797L224.448 148.689ZM164.623 155.23C167.754 154.396 170.098 155.87 171.885 159.987L167.268 163.659L167.263 163.661L162.493 165.549L162.373 165.024C161.067 159.084 161.918 155.952 164.623 155.23ZM171.885 159.987L167.272 163.658C167.651 163.507 168.07 163.586 168.368 163.836C168.472 163.923 168.561 164.031 168.628 164.156C169.717 166.122 170.558 166.59 171.413 166.109C172.318 165.6 172.602 163.687 171.941 160.268L171.885 159.987ZM112.031 204.743C112.535 204.417 116.019 202.712 112.917 205.917C109.814 209.121 85.6541 222.716 72.6122 223.469C60.0422 224.194 48.8815 218.928 39.1714 212.036L38.8496 211.806L38.7855 211.889C38.3556 212.436 37.9139 212.932 37.4601 213.377L37.2648 213.565C36.4423 214.34 35.0188 215.216 32.9621 216.235C32.4241 216.502 30.5228 216.747 31.5066 215.741C32.4905 214.734 34.6438 213.285 35.8979 212.454C36.7174 211.911 36.9763 211.276 37.2331 210.647C37.3692 210.313 37.5048 209.98 37.723 209.663C38.0736 209.155 38.7753 209.04 39.2687 209.411C48.8411 216.607 60.0234 220.443 72.6122 219.717C85.2531 218.987 98.3082 213.6 112.031 204.743ZM186.38 211.693C186.821 211.284 186.821 208.372 186.38 208.78C181.497 213.299 171.275 217.274 158.661 218.002C146.032 218.731 136.102 216.74 128.854 212.064C128.349 211.739 125.85 210.877 127.352 212.391C128.854 213.905 145.733 221.804 158.786 221.051L159.177 221.027C172.039 220.24 181.106 216.574 186.38 211.693ZM177.464 157.933L177.399 157.737L174.127 160.132L174.187 160.471C174.845 164.33 174.396 166.853 172.572 167.955L172.476 168.011C170.574 169.081 168.784 168.325 167.287 166.127L167.221 166.029L162.822 167.811L162.923 167.997C166.286 174.083 170.013 175.776 174.4 173.467L174.541 173.391C178.946 170.994 180.031 166.1 177.616 158.408L177.464 157.933ZM49.1177 69.106C49.1177 69.9474 48.4353 70.632 47.5964 70.632C46.7575 70.632 46.075 69.9473 46.075 69.106C46.075 68.2645 46.7575 67.58 47.5964 67.58C48.4353 67.58 49.1177 68.2645 49.1177 69.106Z" fill="#00160A"/>
</svg>
