<svg width="100" height="20" viewBox="0 0 100 20" fill="none" xmlns="http://www.w3.org/2000/svg">
<rect x="20.5" y="0.5" width="59" height="19" rx="9.5" stroke="#606F89"/>
<path d="M26.8963 6.72727H25.799V14H26.8963V6.72727ZM34.8643 6.72727H33.7777V12.0682H33.7102L30.0099 6.72727H28.9943V14H30.0916V8.66619H30.1591L33.8558 14H34.8643V6.72727ZM37.5794 14L38.247 12.0753H41.0879L41.752 14H42.9167L40.2995 6.72727H39.0318L36.4146 14H37.5794ZM38.5666 11.152L39.639 8.0483H39.6958L40.7683 11.152H38.5666ZM50.1657 9.09233C49.9171 7.53693 48.699 6.62784 47.1614 6.62784C45.2793 6.62784 43.8908 8.03764 43.8908 10.3636C43.8908 12.6896 45.2722 14.0994 47.1614 14.0994C48.7594 14.0994 49.9277 13.098 50.1657 11.6598L49.0577 11.6562C48.8695 12.5866 48.0882 13.098 47.1685 13.098C45.9221 13.098 44.981 12.1428 44.981 10.3636C44.981 8.59872 45.9185 7.62926 47.1721 7.62926C48.0989 7.62926 48.8766 8.15128 49.0577 9.09233H50.1657ZM51.62 7.67188H53.8857V14H54.9794V7.67188H57.2486V6.72727H51.62V7.67188ZM60.0897 6.72727H58.9924V14H60.0897V6.72727ZM62.8233 6.72727H61.6373L64.2544 14H65.5222L68.1394 6.72727H66.9533L64.9292 12.6506H64.8475L62.8233 6.72727ZM69.6896 14H74.2919V13.0554H70.7869V10.8288H74.0114V9.88778H70.7869V7.67188H74.2493V6.72727H69.6896V14Z" fill="#606F89"/>
</svg>
