<svg width="384" height="384" viewBox="0 0 384 384" fill="none" xmlns="http://www.w3.org/2000/svg">
<rect width="384" height="384" fill="#F6FCFF"/>
<path d="M246.726 257.599C263.897 259.693 278.63 270.283 290.755 271.733C304.23 273.345 324.609 264.492 345.39 274.912C350.739 277.594 355.131 280.818 353.495 284.824C350.643 291.804 344.641 294.54 331.495 296.437L330.092 296.631C319.929 297.982 309.006 298.31 281.316 298.493L271.854 298.564C238.099 298.858 218.579 300.439 193.302 302.458L190.725 302.667C144.177 306.497 107.021 305.883 79.2578 301.637L78.4194 301.508C55.9886 297.994 42.5027 292.182 35.9197 285.589C32.0443 281.707 29.812 278.087 29.6967 274.219C29.5815 270.35 35.2973 266.098 38.5515 264.492C47.6166 260.019 50.5745 258.397 68.002 256.107C75.5057 255.121 86.7476 255.2 99.7421 254.761C146.358 253.187 218.373 254.142 246.726 257.599Z" fill="#F6FCFF"/>
<path fill-rule="evenodd" clip-rule="evenodd" d="M260.347 266.036C233.921 325.848 138.291 323.921 71.7496 283.098C59.0417 275.301 15.3585 238.553 58.353 217.095C101.348 195.637 87.5763 162.677 122.274 123.365C162.401 77.9022 237.127 54.5849 289.682 115.753C423.256 271.22 269.246 245.895 260.347 266.036Z" fill="#2067A1"/>
<path fill-rule="evenodd" clip-rule="evenodd" d="M83.6892 107.431C81.3068 103.603 78.9195 102.134 76.571 103.405C74.583 104.48 74.2523 107.353 75.3101 111.95L74.6762 112.291C73.8051 112.761 73.4797 113.848 73.9494 114.719C73.9901 114.795 74.036 114.867 74.087 114.936L74.4267 115.39C79.3862 121.969 83.3161 124.664 86.3822 123.182C88.9593 121.937 89.3946 116.632 88.0687 107.033C87.9758 106.36 87.3767 105.882 86.7094 105.931L86.6256 105.94C86.4742 105.961 86.3278 106.008 86.1932 106.081L83.6892 107.431ZM76.6573 110.919L82.1864 107.928L82.1734 107.907C80.2721 104.959 78.6612 104.02 77.302 104.756L77.2395 104.792C76.2359 105.404 75.9577 107.329 76.5969 110.618L76.6573 110.919ZM86.5964 107.608L75.4052 113.643C75.2808 113.71 75.2343 113.866 75.3014 113.99C75.3072 114.001 75.3138 114.011 75.321 114.021L75.6507 114.462C80.1838 120.475 83.5932 122.824 85.7138 121.799C87.325 121.02 87.7478 116.291 86.6269 107.832L86.5964 107.608ZM84.3098 117.284C84.5731 117.009 84.7347 116.635 84.7347 116.224C84.7347 115.376 84.0471 114.688 83.1988 114.688C82.3504 114.688 81.6628 115.376 81.6628 116.224C81.6628 117.072 82.3504 117.76 83.1988 117.76C83.2655 117.76 83.3313 117.756 83.3959 117.747L84.2691 119.35L84.3007 119.401C84.4484 119.61 84.733 119.681 84.9636 119.555C85.2119 119.42 85.3036 119.109 85.1683 118.86L84.3098 117.284Z" fill="#FFB61D"/>
<path fill-rule="evenodd" clip-rule="evenodd" d="M246.726 257.599C263.897 259.693 278.63 270.283 290.755 271.733C304.23 273.345 324.609 264.492 345.39 274.912C350.739 277.594 355.131 280.818 353.495 284.824C350.643 291.804 344.641 294.54 331.495 296.437L330.092 296.631C319.929 297.982 309.006 298.31 281.316 298.493L271.854 298.564C238.099 298.858 218.579 300.439 193.302 302.458L190.725 302.667C144.177 306.497 107.021 305.883 79.2578 301.637L78.4194 301.508C55.9886 297.994 42.5027 292.182 35.9196 285.589C32.0443 281.707 29.8119 278.087 29.6967 274.219C29.5815 270.35 35.2972 266.098 38.5515 264.492C47.6166 260.019 50.5745 258.397 68.002 256.107C75.5057 255.121 86.7476 255.2 99.7421 254.761C146.358 253.187 218.373 254.142 246.726 257.599ZM67.6173 259.347L66.4752 259.499C50.2346 261.701 39.8528 265.708 34.9347 269.703L34.6278 269.96C30.8514 273.214 30.4984 276.872 35.9266 282.28C41.8618 288.194 56.9996 294.865 78.8268 298.266C106.153 302.523 142.891 303.76 189.028 300.057L193.865 299.668C220.501 297.573 240.937 296.459 278.759 296.193L289.2 296.115C311.718 295.911 321.288 295.508 330.528 294.224L331.406 294.098C372.205 286.117 342.766 271.798 325.876 271.733C311.412 271.678 294.038 275.746 289.2 274.223C273.951 269.423 266.121 262.074 246.726 259.723L241.086 259.047L236.272 258.82C157.367 255.154 101.134 254.966 67.6173 259.347Z" fill="#00160A"/>
<path d="M118.72 73.9213C118.44 73.9123 118.16 73.9126 117.879 73.9223C110.975 74.1597 105.555 79.894 105.68 86.7801L105.685 86.9891L105.77 89.5694C106.013 97.3197 106.146 105.039 106.17 112.728L106.212 136.386C106.221 144.901 106.216 152.586 106.191 160.112L106.157 168.093C106.023 193.502 105.661 211.335 104.989 219.097L104.859 220.549C104.048 230.036 103.88 243.662 104.361 261.395C104.367 261.6 104.377 261.805 104.392 262.009C104.924 269.199 111.125 274.615 118.299 274.201L118.517 274.187L120.901 274.014C143.187 272.423 165.472 271.628 187.758 271.628C209.572 271.628 231.552 272.39 253.7 273.913C254.341 273.958 254.984 273.961 255.625 273.925C264.022 273.45 270.464 266.325 270.126 257.949L270.114 257.695L269.946 254.675C268.46 227.465 267.69 200.255 267.637 173.045L267.634 170.021C267.634 150.189 268.563 122.99 270.419 88.4117C270.44 88.0243 270.445 87.6363 270.432 87.2485C270.199 79.7426 263.986 73.8308 256.505 73.942L256.278 73.9473L244.955 74.2906C219.229 75.0493 200.497 75.4458 188.746 75.4799L186.732 75.4822L184.66 75.4768C172.665 75.4253 154.096 75.0139 128.941 74.2428L118.72 73.9213Z" fill="#F6FCFF"/>
<path fill-rule="evenodd" clip-rule="evenodd" d="M255.4 73.2161C254.493 73.7131 253.298 74.0627 251.814 74.2644C255.633 74.6036 258.636 74.5245 260.822 74.0272L260.349 73.9687C258.81 73.7743 257.16 73.5234 255.4 73.2161Z" fill="#E7EAEE"/>
<path fill-rule="evenodd" clip-rule="evenodd" d="M111.771 256.317L111.877 256.321C112.537 256.366 113.003 256.882 112.942 257.451C112.872 258.102 112.176 258.734 111.417 258.786C110.813 258.828 110.393 258.363 110.46 257.642C110.53 256.885 111.123 256.319 111.771 256.317Z" fill="#E7EAEE"/>
<path fill-rule="evenodd" clip-rule="evenodd" d="M123.857 266.206L123.963 266.21C124.623 266.255 125.089 266.771 125.028 267.34C124.958 267.991 124.262 268.623 123.503 268.675C122.899 268.717 122.479 268.252 122.546 267.531C122.616 266.774 123.209 266.208 123.857 266.206Z" fill="#E7EAEE"/>
<path fill-rule="evenodd" clip-rule="evenodd" d="M187.892 265.556C161.671 271.343 210.904 270.32 230.109 269.053C240.562 268.363 248.908 273.584 253.7 273.914C254.341 273.958 254.984 273.962 255.625 273.925C264.022 273.45 270.464 266.325 270.126 257.95L270.114 257.695L269.946 254.675C268.46 227.465 267.69 200.255 267.637 173.045L267.634 170.021C267.634 150.189 268.563 122.99 270.419 88.4119C270.44 88.0245 270.445 87.6364 270.432 87.2487C270.199 79.7428 255.816 250.565 187.892 265.556Z" fill="#E7EAEE"/>
<path d="M265.659 258.561L265.752 258.564C266.23 258.603 266.621 259.1 266.565 259.708C266.502 260.38 265.922 260.985 265.343 261.031C264.936 261.063 264.593 260.626 264.653 259.874C264.716 259.105 265.197 258.572 265.659 258.561Z" fill="#F6FCFF"/>
<path fill-rule="evenodd" clip-rule="evenodd" d="M265.495 262.948C263.788 263.083 262.588 261.557 262.737 259.719C262.881 257.934 264.241 256.517 265.874 256.646C267.48 256.773 268.632 258.238 268.479 259.886C268.332 261.468 267.029 262.826 265.495 262.948ZM265.752 258.564L265.66 258.561C265.197 258.572 264.716 259.105 264.654 259.874C264.593 260.626 264.937 261.063 265.343 261.031C265.922 260.985 266.502 260.38 266.565 259.708C266.621 259.1 266.23 258.603 265.752 258.564Z" fill="#F6FCFF"/>
<path d="M249.42 85.0034C255.488 85.0034 260.407 89.9228 260.407 95.9911C260.407 96.2182 260.4 96.4453 260.386 96.672L260.225 99.3638C259.93 104.473 259.635 110.538 259.342 117.561L259.297 118.685C258.579 137.576 258.556 182.268 259.229 252.761C259.287 258.829 254.414 263.795 248.346 263.853C248.198 263.855 248.051 263.853 247.903 263.849L127.356 260.129C121.774 259.957 117.21 255.626 116.745 250.061L116.643 248.804C115.055 228.793 114.961 203.242 116.36 172.15L116.565 167.691C117.279 151.329 117.335 127.5 116.733 96.2025C116.617 90.1985 121.34 85.2267 127.318 85.0107L127.613 85.0039L249.42 85.0034Z" fill="#F6FCFF"/>
<path fill-rule="evenodd" clip-rule="evenodd" d="M168.373 214.58C173.699 214.804 179.168 213.86 183.91 211.543C189.85 208.64 194.32 203.771 196.794 196.789C200.053 187.592 198.856 177.648 194.171 168.896C190.001 161.106 183.446 155.177 177.403 153.711C177.403 153.711 194.171 177.298 191.769 190.192C188.096 209.908 168.373 214.58 168.373 214.58Z" fill="#E7EAEE"/>
<path fill-rule="evenodd" clip-rule="evenodd" d="M172.245 186.88C174.837 187.955 175.628 189.953 174.619 192.873L174.561 193.036C167.998 211.057 160.258 211.221 166.881 193.036C167.683 190.833 167.484 189.143 166.284 187.966C168.405 187.535 170.392 187.173 172.245 186.88Z" fill="#E7EAEE"/>
<path fill-rule="evenodd" clip-rule="evenodd" d="M131.137 165.815C132.836 160.769 135.315 156.977 139.95 153.978L140.538 153.604C141.538 152.977 142.771 152.266 143.773 152.752C145.047 153.368 146.892 155.616 145.769 156.499C145.009 157.097 141.876 157.734 139.515 159.802C136.727 162.244 134.721 166.18 134.721 167.143C134.721 170.287 130.135 168.794 131.137 165.815Z" fill="#E7EAEE"/>
<path fill-rule="evenodd" clip-rule="evenodd" d="M125.887 93.9018C120.057 109.908 120.097 113.084 119.747 110.325C118.616 101.403 117.763 95.5395 119.107 91.9779C120.809 87.4688 125.075 86.5818 126.174 87.1051C128.497 88.2116 125.887 93.9018 125.887 93.9018Z" fill="#E7EAEE"/>
<path fill-rule="evenodd" clip-rule="evenodd" d="M221.797 176.162L219.857 176.103C217.556 176.044 215.898 176.058 214.506 176.167C213.389 176.254 212.555 176.407 212.083 176.556L211.989 176.587L211.98 176.631C211.928 176.892 211.89 177.242 211.874 177.664L211.869 177.825C211.838 179.093 211.991 180.785 212.296 182.676C212.545 184.226 212.886 185.837 213.241 187.194L213.331 187.528C213.468 188.034 213.601 188.474 213.718 188.817L213.76 188.94L213.811 188.959C214.526 189.213 215.946 189.243 218.685 189.041L220.546 188.895C221.799 188.803 222.712 188.763 223.613 188.775L232.357 188.958C233.58 188.981 234.685 188.999 235.768 189.013L237.732 189.035C242.637 189.321 248.028 189.106 248.698 187.886C250.744 184.162 251.708 176.493 250.744 176.442C249.008 176.349 246.908 176.24 245.91 176.254L243.607 176.295L241.517 176.312C240.564 176.317 239.568 176.321 238.501 176.322L226.518 176.294C225.739 176.288 224.976 176.27 223.601 176.224L221.797 176.162Z" fill="#E7EAEE"/>
<path fill-rule="evenodd" clip-rule="evenodd" d="M129.915 71.5245L118.808 71.1759C118.467 71.165 118.125 71.1653 117.784 71.1771C109.294 71.469 102.647 78.5887 102.939 87.0794L103.024 89.6554C103.123 92.8366 103.275 96.0125 103.426 99.1832C103.683 104.567 103.939 109.936 103.939 115.29L103.974 134.709C104.008 161.789 103.926 206.388 102.724 219.305L102.633 220.319C101.851 229.472 101.149 242.349 101.55 258.951L101.615 261.47C101.621 261.717 101.634 261.965 101.652 262.212C102.301 270.987 109.94 277.575 118.715 276.927L121.096 276.754L121.49 276.726C121.57 276.858 121.651 276.991 121.73 277.123L121.73 277.123C122.116 277.759 122.476 278.354 122.56 278.646C122.771 279.382 122.793 280.216 122.671 282.103L122.548 283.871L122.514 284.446C122.334 287.971 122.741 290.069 124.461 291.648C126.673 293.679 129.016 293.464 133.817 293.022L134.033 293.002L135.269 292.883C136.698 292.745 138.304 292.856 139.399 292.932L139.399 292.932C139.714 292.954 139.987 292.973 140.201 292.982L140.605 293.002C143.36 293.112 143.797 292.205 144.038 289.964C144.171 288.729 143.998 287.757 143.272 285.249L142.729 283.401L142.549 282.758C141.701 279.625 141.778 278.061 142.883 277.305C143.151 277.122 144.27 276.789 145.561 276.405C146.89 276.01 148.399 275.561 149.35 275.165C162.153 274.638 174.955 274.375 187.758 274.375C201.209 274.375 214.725 274.666 228.306 275.247C228.216 275.394 228.199 275.606 228.295 275.902C228.403 276.235 228.811 276.466 229.333 276.762C230.717 277.544 232.899 278.778 232.392 283.57L232.394 283.767C232.47 287.544 234.76 289.759 238.443 290.511C240.905 291.014 243.706 290.862 246.757 290.333C248.268 290.072 249.241 289.127 249.705 287.688C249.962 286.893 250.053 286.178 250.114 284.757C250.114 284.757 249.442 277.37 253.178 276.631C253.289 276.639 253.4 276.646 253.511 276.654C253.944 276.684 254.377 276.698 254.81 276.697C254.868 276.71 254.927 276.725 254.987 276.741C255.166 276.79 255.337 276.762 255.491 276.682C255.587 276.678 255.683 276.673 255.779 276.668C265.776 276.102 273.422 267.54 272.856 257.543L272.688 254.525C271.149 226.357 270.38 198.189 270.38 170.021C270.38 150.84 271.252 124.715 272.997 91.6472L273.162 88.5591C273.186 88.0942 273.192 87.6285 273.177 87.1633C272.894 78.0651 265.29 70.9189 256.192 71.2018L250.425 71.3788C221.85 72.2452 201.289 72.6966 188.742 72.7331L186.734 72.7354C175.019 72.7263 156.08 72.3227 129.915 71.5245ZM249.428 276.382C243.078 275.971 236.743 275.624 230.422 275.34C233.449 276.809 234.528 279.552 234.588 283.346L234.589 283.57C234.589 286.024 236.499 287.627 239.068 288.152C239.337 288.207 239.612 288.266 239.894 288.327C241.669 288.712 243.697 289.152 245.947 288.783L246.288 288.726C247.844 288.152 247.844 282.562 247.844 282.562C247.861 282.108 247.877 281.811 247.903 281.45L247.937 281.045C248.132 279.01 248.557 277.49 249.428 276.382ZM125.2 277.889C125.051 277.368 124.838 276.908 124.563 276.513C129.953 276.148 135.342 275.83 140.732 275.559C139.89 276.497 139.811 277.764 139.78 279.279C139.753 280.583 140.017 281.971 140.571 283.925L140.605 284.042L141.112 285.77C141.733 287.903 141.92 288.796 141.868 289.543L141.856 289.67C141.782 290.364 140.891 291.147 139.385 291.059L139.116 291.045C138.47 290.947 132.11 291.059 132.11 291.059C129.173 291.357 127.76 290.947 126.319 289.624C125.352 288.736 125.092 287.159 125.283 284.14L125.402 282.446C125.551 280.23 125.539 279.193 125.26 278.107L125.2 277.889ZM117.879 73.9224C118.159 73.9127 118.439 73.9124 118.719 73.9214L128.94 74.2429C154.095 75.014 172.665 75.4254 184.659 75.4769L186.731 75.4823L188.746 75.48C200.496 75.4459 219.228 75.0494 244.954 74.2907L256.277 73.9474L256.504 73.9422C263.985 73.831 270.198 79.7427 270.432 87.2486C270.444 87.6364 270.439 88.0244 270.419 88.4118C268.562 122.99 267.633 150.189 267.633 170.021L267.636 173.045C267.689 200.255 268.459 227.465 269.945 254.675L270.113 257.695L270.126 257.95C270.463 266.325 264.021 273.45 255.624 273.925C254.983 273.962 254.34 273.958 253.7 273.914C231.552 272.39 209.571 271.628 187.758 271.628C165.472 271.628 143.186 272.424 120.9 274.014L118.516 274.187L118.299 274.201C111.125 274.615 104.923 269.199 104.392 262.01C104.376 261.805 104.366 261.6 104.361 261.395C103.88 243.662 104.048 230.036 104.858 220.549L104.988 219.098C105.66 211.335 106.022 193.502 106.156 168.093L106.19 160.112C106.215 152.586 106.22 144.901 106.211 136.386L106.169 112.728C106.145 105.039 106.012 97.3198 105.769 89.5695L105.685 86.9893L105.679 86.7802C105.554 79.8941 110.974 74.1598 117.879 73.9224ZM260.407 95.991C260.407 89.9227 255.487 85.0033 249.419 85.0033L127.612 85.0038L127.317 85.0106C121.339 85.2266 116.616 90.1984 116.732 96.2024C117.334 127.499 117.278 151.329 116.564 167.691L116.359 172.149C114.96 203.242 115.055 228.793 116.642 248.804L116.744 250.061C117.209 255.626 121.774 259.957 127.355 260.129L247.902 263.848C248.05 263.853 248.198 263.855 248.345 263.853C254.414 263.795 259.286 258.829 259.228 252.761C258.556 182.268 258.578 137.576 259.296 118.685L259.341 117.561C259.634 110.538 259.929 104.473 260.224 99.3637L260.385 96.6719C260.4 96.4452 260.407 96.2181 260.407 95.991ZM127.718 87.7503H249.419C253.97 87.7503 257.66 91.4398 257.66 95.991C257.66 96.1614 257.654 96.3317 257.644 96.5017C257.356 101.135 257.069 106.667 256.784 113.097L256.596 117.446C255.87 134.801 255.8 176.36 256.383 242.191L256.481 252.787C256.524 257.338 252.87 261.063 248.319 261.106C248.208 261.107 248.097 261.106 247.987 261.103L127.44 257.384L127.258 257.376C123.155 257.16 119.825 253.945 119.482 249.832C117.79 229.563 117.677 203.376 119.147 171.289L119.285 168.32C119.979 152.881 120.077 130.741 119.583 101.882L119.478 96.1496C119.391 91.5991 123.009 87.8393 127.559 87.7518C127.612 87.7508 127.665 87.7503 127.718 87.7503ZM123.507 79.3258C123.681 81.1932 122.328 82.6919 120.504 82.5664C118.837 82.4517 117.37 81.1202 117.199 79.5167L117.189 79.3994C117.083 77.804 118.305 76.4477 119.945 76.2738L120.069 76.263C121.817 76.1426 123.34 77.5248 123.507 79.3258ZM120.282 78.1787L120.176 78.1827C119.516 78.2284 119.05 78.7438 119.111 79.3127C119.18 79.964 119.876 80.5958 120.636 80.6481C121.24 80.6897 121.66 80.2251 121.593 79.5036C121.522 78.7472 120.93 78.1814 120.282 78.1787ZM110.56 93.891C108.659 94.0596 107.379 92.2308 107.537 90.0376C107.691 87.8879 109.168 86.1602 110.996 86.3224L111.114 86.3353C112.793 86.5537 113.953 88.2052 113.857 90.0565L113.849 90.186C113.692 92.0783 112.273 93.739 110.56 93.891ZM110.855 88.2398L110.761 88.2353C110.178 88.2424 109.537 89.0303 109.454 90.1758C109.372 91.3201 109.864 92.0224 110.39 91.9757C111.105 91.9123 111.849 91.042 111.932 90.0274C112.012 89.0669 111.471 88.295 110.855 88.2398ZM252.895 79.3258C252.722 81.1932 254.075 82.6919 255.899 82.5664C257.566 82.4517 259.033 81.1202 259.204 79.5167L259.214 79.3994C259.32 77.804 258.098 76.4477 256.458 76.2738L256.334 76.263C254.585 76.1426 253.063 77.5248 252.895 79.3258ZM256.121 78.1787L256.227 78.1827C256.887 78.2284 257.353 78.7438 257.292 79.3127C257.222 79.964 256.526 80.5958 255.767 80.6481C255.163 80.6897 254.743 80.2251 254.81 79.5036C254.88 78.7472 255.473 78.1814 256.121 78.1787ZM263.134 90.748C262.114 89.2317 262.735 87.3104 264.439 86.5269C266.082 85.7713 268.041 86.3988 268.811 87.9734L268.863 88.086C269.533 89.5932 268.969 91.3298 267.534 92.0357L267.428 92.0856C265.954 92.7392 264.067 92.1347 263.134 90.748ZM267.095 88.8407L267.045 88.7466C266.719 88.187 265.932 87.9566 265.242 88.2739C264.584 88.5766 264.391 89.1722 264.729 89.6745C265.154 90.3064 266.05 90.5932 266.648 90.3277C267.171 90.0959 267.385 89.4351 267.095 88.8407ZM109.203 255.319C107.869 256.638 107.943 258.656 109.42 259.732C110.771 260.716 112.751 260.639 113.912 259.52L113.995 259.437C115.102 258.283 115.038 256.459 113.893 255.271L113.805 255.183C112.543 253.967 110.488 254.047 109.203 255.319ZM112.411 256.514L112.489 256.585C112.966 257.044 112.991 257.738 112.579 258.135C112.107 258.59 111.168 258.626 110.552 258.178C110.063 257.821 110.04 257.196 110.555 256.686C111.095 256.152 111.913 256.1 112.411 256.514ZM121.506 269.621C120.029 268.545 119.956 266.527 121.289 265.208C122.575 263.936 124.63 263.856 125.892 265.072L125.98 265.16C127.124 266.347 127.189 268.172 126.082 269.326L125.999 269.409C124.837 270.528 122.858 270.605 121.506 269.621ZM124.576 266.474L124.497 266.403C123.999 265.988 123.181 266.041 122.641 266.575C122.126 267.085 122.149 267.71 122.638 268.067C123.254 268.515 124.193 268.478 124.665 268.024C125.077 267.627 125.052 266.933 124.576 266.474ZM256.774 265.847C255.243 267.391 255.202 269.662 256.833 270.83C258.326 271.899 260.562 271.688 261.9 270.371C263.286 269.007 263.326 266.811 261.962 265.475C260.581 264.124 258.266 264.342 256.774 265.847ZM260.556 266.794L260.634 266.866C261.2 267.42 261.182 268.38 260.551 269.001C259.871 269.671 258.675 269.783 257.952 269.266C257.367 268.847 257.383 267.963 258.139 267.201C258.906 266.427 259.973 266.302 260.556 266.794ZM265.495 262.948C263.788 263.082 262.588 261.556 262.737 259.719C262.881 257.934 264.241 256.516 265.874 256.646C267.48 256.772 268.632 258.238 268.479 259.885C268.332 261.468 267.029 262.826 265.495 262.948ZM265.752 258.564L265.66 258.561C265.197 258.572 264.716 259.105 264.654 259.874C264.593 260.626 264.937 261.063 265.343 261.031C265.922 260.985 266.502 260.38 266.565 259.708C266.621 259.1 266.23 258.602 265.752 258.564Z" fill="#00160A"/>
<path fill-rule="evenodd" clip-rule="evenodd" d="M121.29 265.208C119.957 266.527 120.03 268.545 121.507 269.621C122.859 270.605 124.838 270.528 126 269.409L126.083 269.326C127.19 268.172 127.125 266.347 125.981 265.16L125.893 265.072C124.631 263.856 122.576 263.936 121.29 265.208ZM124.498 266.403L124.577 266.474C125.053 266.933 125.078 267.627 124.666 268.024C124.194 268.478 123.255 268.515 122.639 268.067C122.15 267.71 122.127 267.085 122.642 266.575C123.182 266.041 124 265.988 124.498 266.403Z" fill="#00160A"/>
<path d="M260.557 266.794L260.636 266.866C261.201 267.42 261.184 268.38 260.552 269.001C259.872 269.671 258.676 269.783 257.953 269.266C257.369 268.847 257.385 267.963 258.14 267.201C258.907 266.427 259.974 266.302 260.557 266.794Z" fill="#F6FCFF"/>
<path fill-rule="evenodd" clip-rule="evenodd" d="M139.306 148.886C138.672 149.106 138.1 149.405 137.393 149.84L136.85 150.181L136.581 150.352C132.484 152.996 129.749 156.285 127.803 160.738L127.699 160.98L127.621 160.956C127.105 160.805 126.636 160.73 126.136 160.772C125.069 160.861 124.074 161.5 123.719 162.692C123.164 164.553 123.393 166.681 124.114 168.86L124.249 169.259C124.952 171.279 125.73 172.65 127.023 173.05C128.742 173.582 134.682 171.228 136.754 169.091C138.231 167.567 137.639 165.703 136.233 164.627L136.104 164.531L135.968 164.437L135.814 164.337L135.917 164.153C135.989 164.026 136.064 163.898 136.143 163.768C136.983 162.375 138.033 161.058 139.097 160.126C139.507 159.767 139.981 159.438 140.521 159.131C141.356 158.656 144.69 157.347 145.251 156.906C147.053 155.488 146.845 153.436 145.705 151.656C144.996 150.549 143.881 149.512 142.804 148.99C141.672 148.442 140.488 148.475 139.306 148.886ZM141.726 151.215C143 151.832 144.845 154.08 143.722 154.963C142.962 155.561 139.829 156.198 137.468 158.266C134.68 160.708 132.674 164.643 132.674 165.607L132.992 165.726C134.73 166.395 135.392 166.943 134.979 167.37C133.135 169.272 128.125 170.803 127.754 170.688C127.389 170.576 125.227 166.288 126.088 163.398C126.203 163.012 127.204 163.305 129.091 164.279C130.789 159.233 133.268 155.44 137.903 152.442L138.491 152.068C139.491 151.441 140.724 150.73 141.726 151.215Z" fill="#00160A"/>
<path fill-rule="evenodd" clip-rule="evenodd" d="M143.056 205.777C132.879 194.655 132.29 175.683 143.284 163.465C150.115 155.875 166.168 150.986 177.402 153.711C183.445 155.177 190 161.106 194.17 168.896C198.855 177.648 200.051 187.592 196.793 196.788C194.319 203.771 189.849 208.64 183.909 211.542C179.166 213.86 173.698 214.804 168.372 214.58C158.761 214.175 146.811 209.88 143.056 205.777ZM191.748 170.192C187.919 163.038 181.952 157.642 176.755 156.381L176.445 156.308C166.198 153.984 151.416 158.535 145.326 165.303C135.3 176.445 135.839 193.821 145.082 203.922C148.272 207.408 159.542 211.459 168.487 211.835C173.384 212.042 178.405 211.175 182.703 209.074C188.009 206.482 191.975 202.162 194.204 195.871C197.188 187.449 196.086 178.298 191.748 170.192ZM186.457 196.511C192.535 185.84 184.295 162.798 172.786 160.875C161.967 159.067 157.866 161.691 153.2 165.737L152.298 166.529C143.166 174.602 143.166 191.946 152.087 199.993C154.329 202.015 164.192 207.203 171.761 205.616C176.78 204.563 183.765 201.237 186.457 196.511ZM161.055 163.885C161.628 163.679 162.232 163.51 162.875 163.378C162.789 163.578 162.715 163.79 162.654 164.015C162.313 165.269 162.348 166.342 162.716 168.955L162.967 170.686C162.989 170.839 163.008 170.978 163.027 171.122L163.082 171.562C163.473 174.869 163.118 176.594 161.639 177.546C160.286 178.417 158.955 178.745 155.915 179.099L154.777 179.228C153.375 179.39 152.638 179.502 151.752 179.702L151.351 179.782C150.124 180.04 149.105 180.361 148.314 180.765C148.835 176.04 150.77 171.546 154.117 168.587C157.274 165.795 158.867 164.669 161.055 163.885ZM172.333 163.584C171.888 163.51 171.456 163.443 171.035 163.384C171.123 163.608 171.198 163.845 171.259 164.096C171.516 165.144 171.561 166.074 171.498 168.193L171.468 169.108C171.436 169.988 171.421 170.511 171.416 171.014L171.416 171.617C171.442 174.298 171.862 176.08 172.893 177.287L173.008 177.416L173.054 177.435C173.117 177.461 173.198 177.49 173.294 177.522L173.396 177.555C173.632 177.63 173.928 177.714 174.308 177.814L174.942 177.976L177.649 178.639C178.181 178.771 178.654 178.891 179.107 179.011L179.852 179.212C182.09 179.828 183.805 180.429 185.053 181.099C183.19 172.755 178.058 164.541 172.333 163.584ZM185.353 187.236C185.508 187.138 185.654 187.038 185.792 186.936C185.859 190.048 185.337 192.926 184.07 195.152C182.25 198.346 177.195 201.389 172.258 202.677C172.383 202.362 172.484 202.02 172.562 201.654C172.802 200.527 172.841 199.237 172.746 197.409L172.687 196.425L172.597 195.132C172.428 192.548 172.469 191.467 172.694 191.208C173.707 190.043 175.111 189.597 178.684 189.085L179.513 188.966C182.5 188.53 183.9 188.162 185.353 187.236ZM164.358 201.339C164.395 201.803 164.549 202.276 164.799 202.722C163.532 202.455 162.214 202.07 160.871 201.578C157.866 200.479 154.953 198.879 153.927 197.953C150.669 195.014 148.793 190.578 148.301 185.908C149.145 186.297 150.261 186.625 151.647 186.953L151.86 187.003C152.419 187.133 152.992 187.254 153.667 187.387L155.596 187.762C159.914 188.649 162.144 189.678 163.163 191.052L163.265 191.195C163.94 192.179 164.127 193.293 164.181 196.185L164.212 198.245C164.236 199.479 164.274 200.297 164.358 201.339ZM167.606 163.495L167.73 163.506C168.896 163.645 169.143 164.726 169.005 168.805L168.958 170.219C168.947 170.645 168.943 170.988 168.943 171.364C168.944 173.922 169.25 175.908 170.073 177.499C169.919 177.418 169.744 177.371 169.558 177.371L169.371 177.374L169.324 177.375L169.303 177.366C168.988 177.249 168.643 177.286 168.364 177.45L168.336 177.468L168.239 177.484C165.843 177.883 163.462 179.314 162.185 181.21C160.815 183.243 160.883 185.463 162.446 187.365C160.959 186.58 158.986 185.951 156.383 185.4L155.543 185.232C155.048 185.136 154.432 185.018 154.432 185.018L153.935 184.92C153.455 184.824 153.03 184.734 152.622 184.642L152.419 184.595C151.179 184.307 150.2 184.012 149.516 183.704L149.407 183.653C149.196 183.553 149.029 183.457 148.91 183.371L148.894 183.358L148.925 183.327C149.009 183.243 149.137 183.148 149.312 183.047C149.913 182.7 150.902 182.383 152.258 182.121L152.601 182.047C153.205 181.923 153.797 181.834 154.72 181.724L156.219 181.553C159.628 181.156 161.206 180.764 162.977 179.625C165.559 177.963 166.052 175.365 165.508 171.032L165.448 170.574C165.417 170.35 165.384 170.116 165.34 169.818L165.169 168.647C164.863 166.47 164.82 165.535 165.02 164.736L165.039 164.663C165.284 163.762 165.909 163.389 167.606 163.495ZM165.053 189.453C165.085 189.494 165.117 189.536 165.149 189.579C166.317 191.154 166.584 192.545 166.652 196.097L166.679 197.974C166.7 199.148 166.731 199.922 166.797 200.818L166.822 201.14C166.873 201.775 167.957 202.785 169.154 202.556C170.087 202.378 170.448 200.85 170.272 197.45L170.248 197.024L170.112 195.028C169.896 191.761 169.964 190.675 170.71 189.729C168.922 190.402 166.843 190.369 165.053 189.453ZM173.594 187.665C174.703 187.246 176.114 186.962 178.074 186.675L179.136 186.523C181.619 186.16 182.819 185.864 183.836 185.267L184.025 185.151C185.175 184.418 185.286 184.272 184.774 183.859L184.609 183.731C183.704 183.049 181.956 182.369 179.44 181.663L178.909 181.517C178.335 181.362 177.745 181.21 177.05 181.037L174.159 180.328C173.613 180.191 173.176 180.076 172.82 179.971C175.055 182.334 175.424 184.993 173.889 187.265L173.802 187.39C173.735 187.484 173.666 187.576 173.594 187.665ZM168.68 179.638L168.836 179.616L168.947 179.683C172.54 181.868 173.34 184.248 172.011 186.116C170.689 187.974 167.786 188.616 165.703 187.296C163.288 185.766 162.887 184.102 164.008 182.437C164.954 181.032 166.847 179.92 168.68 179.638Z" fill="#00160A"/>
<path d="M206.017 175.398C206.031 174.815 206.083 174.396 206.144 174.122C206.192 174.104 206.249 174.084 206.314 174.064C206.626 173.966 207.046 173.873 207.585 173.797C208.67 173.644 210.034 173.582 211.591 173.579C213.137 173.576 214.788 173.629 216.438 173.687C216.537 173.69 216.636 173.693 216.735 173.697C218.264 173.75 219.798 173.803 221.16 173.805C222.73 173.807 224.329 173.812 225.942 173.818C229.892 173.831 233.923 173.845 237.818 173.805C238 173.803 238.256 173.798 238.572 173.791C239.819 173.765 242.002 173.719 244.244 173.791C245.645 173.836 246.985 173.926 248.058 174.081C248.596 174.159 249.012 174.246 249.309 174.332C249.372 174.351 249.424 174.367 249.465 174.381C249.488 174.427 249.517 174.489 249.55 174.571C249.686 174.907 249.821 175.414 249.919 176.092C250.116 177.445 250.123 179.173 249.92 180.901C249.716 182.644 249.322 184.199 248.83 185.262C248.542 185.884 248.326 186.133 248.236 186.22C241.47 186.928 230.141 186.68 221.004 186.48C219.977 186.458 218.978 186.436 218.017 186.416C216.794 186.391 215.533 186.473 214.37 186.563C214.078 186.586 213.794 186.609 213.517 186.631C212.648 186.702 211.844 186.767 211.062 186.8C210.036 186.843 209.218 186.821 208.582 186.714C208.285 186.664 208.069 186.603 207.915 186.544C207.793 186.201 207.644 185.719 207.48 185.118C207.12 183.794 206.731 182.045 206.444 180.26C206.153 178.455 205.984 176.724 206.017 175.398ZM208.07 186.937C208.068 186.933 208.065 186.927 208.061 186.918C208.092 186.973 208.094 186.987 208.07 186.937ZM206.211 173.884C206.218 173.868 206.222 173.86 206.222 173.861C206.222 173.861 206.219 173.87 206.211 173.884Z" stroke="#421EB7" stroke-width="5.36509"/>
<path fill-rule="evenodd" clip-rule="evenodd" d="M221.131 171.388C222.716 171.39 224.323 171.396 225.94 171.401C229.265 171.413 232.632 171.424 235.929 171.403L237.759 171.388C237.916 171.387 238.149 171.382 238.443 171.376C241.194 171.318 249.315 171.146 251.101 172.502C254.022 174.719 252.859 188.679 248.682 189.133C241.75 189.886 230.101 189.63 220.931 189.429H220.931C219.895 189.406 218.892 189.384 217.93 189.364C216.595 189.337 215.158 189.453 213.739 189.568C210.557 189.826 207.466 190.077 205.822 188.679C204.974 187.958 201.706 174.238 204.251 172.354C206.195 170.914 211.771 171.107 216.781 171.282C218.025 171.325 219.234 171.367 220.344 171.382L220.345 171.381L220.347 171.382C220.614 171.386 220.876 171.388 221.131 171.388ZM217.781 174.064C218.052 174.073 218.298 174.081 218.526 174.088C218.711 175.225 218.732 177.224 218.599 180.169L218.501 182.298C218.415 184.287 218.383 185.641 218.44 186.628L217.794 186.615C216.893 186.603 215.98 186.643 214.726 186.735L212.866 186.881C210.127 187.083 208.706 187.052 207.991 186.799L207.941 186.779L207.899 186.657C207.782 186.314 207.649 185.874 207.511 185.367L207.422 185.034C207.066 183.676 206.726 182.066 206.476 180.516C206.172 178.625 206.019 176.933 206.05 175.665L206.055 175.504C206.071 175.082 206.108 174.732 206.161 174.471L206.17 174.427L206.263 174.396C206.735 174.247 207.57 174.094 208.687 174.007C210.078 173.898 211.737 173.884 214.037 173.943L215.977 174.002L217.781 174.064ZM226.537 186.798L221.227 186.687C221.198 186.375 221.177 185.992 221.171 185.549L221.169 185.454C221.16 184.758 221.174 184.094 221.223 182.926L221.377 179.493C221.471 177.134 221.474 175.422 221.318 174.135L232.681 174.161C233.29 174.161 233.874 174.16 234.441 174.158C234.267 177.575 234.544 183.553 234.899 186.892C233.941 186.89 232.946 186.885 231.913 186.875L229.948 186.853C228.866 186.839 227.761 186.821 226.537 186.798ZM237.69 186.883C241.911 186.847 245.3 186.711 247.927 186.45L248.173 186.424L248.206 186.39C248.346 186.231 248.51 185.976 248.677 185.634L248.74 185.502C249.233 184.435 249.624 182.88 249.825 181.159C250.025 179.456 250.023 177.73 249.825 176.367C249.733 175.738 249.605 175.222 249.459 174.861L249.418 174.764L249.387 174.7L249.278 174.665C248.984 174.578 248.58 174.495 248.086 174.421C247.113 174.276 245.859 174.179 244.393 174.128C243.029 174.08 241.643 174.073 240.091 174.094L237.787 174.135L237.133 174.14C237.111 174.512 237.095 174.954 237.089 175.449L237.088 175.609C237.077 176.948 237.124 178.635 237.219 180.503L237.239 180.879C237.318 182.344 237.422 183.858 237.534 185.19L237.601 185.965C237.631 186.296 237.661 186.604 237.69 186.883ZM225.593 178.775L225.843 179.134C226.129 179.537 226.399 179.894 226.657 180.209C226.311 180.961 226.13 181.807 226.073 182.895C226.052 183.291 226.356 183.628 226.752 183.649C227.148 183.669 227.485 183.365 227.506 182.97C227.539 182.343 227.615 181.826 227.752 181.367C228.546 182.062 229.241 182.32 229.972 182.333L230.114 182.333C230.51 182.333 230.831 182.012 230.831 181.616C230.831 181.244 230.549 180.939 230.187 180.902L230.114 180.898L229.993 180.898C229.525 180.888 229.053 180.69 228.41 180.042C228.619 179.749 228.872 179.459 229.174 179.149L229.943 178.388C230.224 178.109 230.226 177.655 229.948 177.373C229.669 177.092 229.214 177.09 228.933 177.369L228.288 178.003C227.975 178.316 227.701 178.617 227.461 178.919L227.2 178.565C227.065 178.379 226.924 178.178 226.776 177.963C226.551 177.636 226.105 177.553 225.778 177.777C225.451 178.002 225.368 178.448 225.593 178.775ZM245.185 178.092L245.192 177.654C245.195 177.258 244.876 176.934 244.48 176.931C244.084 176.927 243.76 177.246 243.757 177.642C243.753 178.078 243.742 178.468 243.724 178.818C243.356 178.702 242.96 178.606 242.525 178.521L241.636 178.356C241.247 178.282 240.871 178.538 240.797 178.927C240.724 179.316 240.979 179.692 241.369 179.766L242.432 179.966C242.856 180.055 243.227 180.154 243.564 180.28C243.394 181.177 243.113 181.604 242.731 181.875L242.631 181.942L242.572 181.986C242.293 182.219 242.23 182.63 242.437 182.938C242.659 183.267 243.105 183.353 243.434 183.132L243.55 183.053C244.149 182.633 244.581 182.03 244.851 181.01C245.221 181.314 245.573 181.7 245.951 182.201C246.19 182.518 246.639 182.581 246.956 182.343C247.272 182.104 247.336 181.655 247.097 181.338C246.442 180.468 245.819 179.868 245.111 179.437C245.149 179.033 245.173 178.586 245.185 178.092Z" fill="#00160A"/>
<path fill-rule="evenodd" clip-rule="evenodd" d="M213.882 178.031L213.769 178.454C213.638 178.93 213.507 179.358 213.372 179.741C213.954 180.331 214.414 181.063 214.84 182.066C214.994 182.431 214.824 182.852 214.459 183.007C214.095 183.162 213.673 182.991 213.519 182.627C213.273 182.049 213.025 181.589 212.739 181.205C212.231 182.129 211.666 182.609 210.983 182.872L210.851 182.92C210.478 183.056 210.067 182.864 209.931 182.492C209.804 182.142 209.965 181.759 210.292 181.601L210.36 181.572L210.473 181.531C210.91 181.361 211.285 181.014 211.667 180.185C211.371 179.981 211.034 179.795 210.645 179.607L209.661 179.155C209.302 178.989 209.144 178.563 209.31 178.203C209.476 177.843 209.902 177.686 210.262 177.851L211.085 178.227C211.486 178.414 211.847 178.603 212.176 178.805C212.278 178.47 212.383 178.094 212.492 177.672C212.591 177.288 212.983 177.057 213.366 177.156C213.75 177.256 213.981 177.647 213.882 178.031Z" fill="#64FCD9"/>
</svg>
